<?xml version="1.0" encoding="UTF-8"?>
<svg id="Layer_1" data-name="Layer 1" xmlns="http://www.w3.org/2000/svg" viewBox="0 0 100 100">
  <defs>
    <style>
      .cls-1 {
        fill: #070808;
      }

      .cls-1, .cls-2 {
        stroke-width: 0px;
      }

      .cls-2 {
        fill: #f3f4f4;
      }
    </style>
  </defs>
  <rect class="cls-1" width="100" height="100" rx="29.56" ry="29.56"/>
  <path class="cls-2" d="M50.07,82.38c-3.72,0-6.52-.87-8.38-2.61-1.86-1.74-2.79-4.55-2.79-8.42v-33.24h-5.9v-5.13c.7-.27,1.42-.51,2.16-.73.74-.21,1.42-.43,2.04-.66.62-.23,1.11-.49,1.48-.79.39-.39.73-.77,1.02-1.14.29-.36.55-.79.79-1.29.24-.5.48-1.08.73-1.75.33-.79.67-1.71,1-2.77.33-1.06.66-2.14.98-3.25.32-1.11.6-2.1.84-2.97h7.4l.41,13.44h13.44v7.04h-13.35v25.43c0,3.21.11,5.55.34,7.02.23,1.47.7,2.39,1.41,2.77.71.38,1.75.57,3.11.57,1.51,0,3.07-.17,4.65-.52,1.59-.35,2.87-.72,3.84-1.11l1.73,5.09c-1.03.82-2.44,1.61-4.22,2.36-1.79.76-3.78,1.39-5.99,1.91-2.21.51-4.45.77-6.72.77Z"/>
</svg>