<?xml version="1.0" encoding="UTF-8"?>
<svg id="Layer_1" data-name="Layer 1" xmlns="http://www.w3.org/2000/svg" viewBox="0 0 421.23 450.51">
  <defs>
    <style>
      .cls-1 {
        fill: #fff;
        opacity: .99;
        stroke-width: 0px;
      }
    </style>
  </defs>
  <path class="cls-1" d="M412.37,232.12c-5.91-19.05-14.58-35.45-26.01-49.17-11.43-13.72-25.44-24.39-42.02-32.02-16.58-7.62-35.54-11.43-56.88-11.43-17.15,0-32.3,2.29-45.45,6.86-13.15,4.57-22.97,8.96-29.44,13.15V0l-53.17,44.72v.9c0,58.66-47.55,122.63-106.21,122.63h0V54.31L0,99.03v229.71c0,19.82,1.62,37.26,4.86,52.31,3.23,15.06,8.86,27.73,16.87,38.02,8,10.29,18.58,18.01,31.73,23.15,13.15,5.15,29.82,7.72,50.02,7.72,17.15,0,32.39-2,45.74-6l.24-.07c12.87-3.86,26.48-4.45,39.64-1.78,5.37,1.09,11.09,2.19,17.17,3.28,19.05,3.43,40.97,5.14,65.75,5.14,22.87,0,43.45-3.63,61.74-10.86,18.29-7.24,33.92-17.53,46.88-30.87,12.95-13.34,22.96-29.63,30.01-48.88,7.05-19.24,10.58-40.88,10.58-64.89s-2.96-43.83-8.86-62.89ZM146.64,397.63c-9.72,3.63-22.58,5.43-38.59,5.43-9.15,0-17.15-1.14-24.01-3.43-6.86-2.29-12.58-6.19-17.15-11.72-4.57-5.52-8-13.15-10.29-22.87-2.29-9.72-3.43-22.01-3.43-36.87v-9.11c0-58.66,47.55-106.21,106.21-106.21h0v180c-3.45,1.32-7.69,2.91-12.74,4.79ZM340.04,375.33c-17.15,18.87-40.02,28.3-68.61,28.3-14.49,0-26.58-.66-36.3-2l-.29-.04c-12.77-1.75-22.29-12.67-22.29-25.56v-140.68c0-18.12,10.87-34.54,27.65-41.39.12-.05.24-.1.37-.15,12.19-4.95,25.53-7.43,40.02-7.43,15.24,0,28.3,2.77,39.16,8.29,10.86,5.53,19.73,13.15,26.59,22.87,6.86,9.72,11.81,21.25,14.87,34.59,3.05,13.35,4.57,27.64,4.57,42.88,0,34.69-8.58,61.46-25.73,80.33Z"/>
</svg>